<?xml version="1.0" standalone="no"?><!DOCTYPE svg PUBLIC "-//W3C//DTD SVG 1.1//EN" "http://www.w3.org/Graphics/SVG/1.1/DTD/svg11.dtd"><svg t="1766852499849" class="icon" viewBox="0 0 1024 1024" version="1.1" xmlns="http://www.w3.org/2000/svg" p-id="15270" xmlns:xlink="http://www.w3.org/1999/xlink" width="200" height="200"><path d="M853.6 288.6L638.4 73.4c-6-6-14.1-9.4-22.6-9.4H191c-17.7 0-32 14.3-32 32v832c0 17.7 14.3 32 32 32h640c17.7 0 32-14.3 32-32V311.3c0-8.5-3.4-16.7-9.4-22.7zM789.2 326H601V137.8L789.2 326z m1.8 562H231V136h302v216c0 23.2 18.8 42 42 42h216v494z" p-id="15271" fill="#43c6e4"></path><path d="M371.82 610.16V453.08h-19.36c-5.28 5.5-11.88 10.56-19.8 15.4-7.92 4.4-15.4 7.48-22.44 9.24v25.52c14.52-4.18 26.4-10.56 35.86-19.14v126.06h25.74z m118.8 3.08c18.26 0 32.56-7.7 42.9-22.88 9.68-14.52 14.52-34.1 14.52-58.74s-4.84-44.22-14.52-58.74c-10.34-15.4-24.64-22.88-42.9-22.88-18.48 0-32.78 7.48-42.9 22.88-9.68 14.52-14.52 34.1-14.52 58.74s4.84 44.22 14.52 58.74c10.12 15.18 24.42 22.88 42.9 22.88z m0-21.78c-12.54 0-21.34-7.04-26.4-20.9-3.52-9.68-5.28-22.66-5.28-38.94 0-16.5 1.76-29.48 5.28-38.94 5.06-14.08 13.86-20.9 26.4-20.9 12.32 0 21.12 6.82 26.4 20.9 3.52 9.46 5.28 22.44 5.28 38.94 0 16.28-1.76 29.26-5.28 38.94-5.28 13.86-14.08 20.9-26.4 20.9z m165 21.78c18.26 0 32.56-7.7 42.9-22.88 9.68-14.52 14.52-34.1 14.52-58.74s-4.84-44.22-14.52-58.74c-10.34-15.4-24.64-22.88-42.9-22.88-18.48 0-32.78 7.48-42.9 22.88-9.68 14.52-14.52 34.1-14.52 58.74s4.84 44.22 14.52 58.74c10.12 15.18 24.42 22.88 42.9 22.88z m0-21.78c-12.54 0-21.34-7.04-26.4-20.9-3.52-9.68-5.28-22.66-5.28-38.94 0-16.5 1.76-29.48 5.28-38.94 5.06-14.08 13.86-20.9 26.4-20.9 12.32 0 21.12 6.82 26.4 20.9 3.52 9.46 5.28 22.44 5.28 38.94 0 16.28-1.76 29.26-5.28 38.94-5.28 13.86-14.08 20.9-26.4 20.9z m-288.2 241.78c18.26 0 32.56-7.7 42.9-22.88 9.68-14.52 14.52-34.1 14.52-58.74s-4.84-44.22-14.52-58.74c-10.34-15.4-24.64-22.88-42.9-22.88-18.48 0-32.78 7.48-42.9 22.88-9.68 14.52-14.52 34.1-14.52 58.74s4.84 44.22 14.52 58.74c10.12 15.18 24.42 22.88 42.9 22.88z m0-21.78c-12.54 0-21.34-7.04-26.4-20.9-3.52-9.68-5.28-22.66-5.28-38.94 0-16.5 1.76-29.48 5.28-38.94 5.06-14.08 13.86-20.9 26.4-20.9 12.32 0 21.12 6.82 26.4 20.9 3.52 9.46 5.28 22.44 5.28 38.94 0 16.28-1.76 29.26-5.28 38.94-5.28 13.86-14.08 20.9-26.4 20.9z m165 21.78c18.26 0 32.56-7.7 42.9-22.88 9.68-14.52 14.52-34.1 14.52-58.74s-4.84-44.22-14.52-58.74c-10.34-15.4-24.64-22.88-42.9-22.88-18.48 0-32.78 7.48-42.9 22.88-9.68 14.52-14.52 34.1-14.52 58.74s4.84 44.22 14.52 58.74c10.12 15.18 24.42 22.88 42.9 22.88z m0-21.78c-12.54 0-21.34-7.04-26.4-20.9-3.52-9.68-5.28-22.66-5.28-38.94 0-16.5 1.76-29.48 5.28-38.94 5.06-14.08 13.86-20.9 26.4-20.9 12.32 0 21.12 6.82 26.4 20.9 3.52 9.46 5.28 22.44 5.28 38.94 0 16.28-1.76 29.26-5.28 38.94-5.28 13.86-14.08 20.9-26.4 20.9z m169.4 18.7V673.08h-19.36c-5.28 5.5-11.88 10.56-19.8 15.4-7.92 4.4-15.4 7.48-22.44 9.24v25.52c14.52-4.18 26.4-10.56 35.86-19.14v126.06h25.74z" p-id="15272" fill="#43c6e4"></path></svg>